<?xml version="1.0" encoding="UTF-8"?>
<svg id="Layer_1" xmlns="http://www.w3.org/2000/svg" version="1.1" viewBox="0 0 16 16">
  <!-- Generator: Adobe Illustrator 30.1.0, SVG Export Plug-In . SVG Version: 2.1.1 Build 136)  -->
  <defs>
    <style>
      .st0 {
        fill: #fff;
      }

      .st1 {
        display: none;
      }
    </style>
  </defs>
  <g class="st1">
    <rect x=".5" y=".42" width="15" height="15.08"/>
    <path d="M15,.92v14.08H1V.92h14M16-.08H0V16h16V-.08h0Z"/>
  </g>
  <path class="st0" d="M12.36,1c1.47,0,2.66,1.2,2.66,2.66v8.7c0,1.47-1.2,2.66-2.66,2.66H3.66c-1.47,0-2.66-1.2-2.66-2.66V3.66C1,2.19,2.19,1,3.66,1h8.7M12.36,0H3.66C1.64,0,0,1.64,0,3.66v8.7C0,14.39,1.64,16.02,3.66,16.02h8.7c2.02,0,3.66-1.64,3.66-3.66V3.66C16.02,1.64,14.39,0,12.36,0h0Z"/>
  <path class="st0" d="M8.07,4.77c1.81,0,3.28,1.47,3.28,3.28s-1.47,3.28-3.28,3.28-3.28-1.47-3.28-3.28,1.47-3.28,3.28-3.28M8.07,3.59c-2.46,0-4.46,2-4.46,4.46s2,4.46,4.46,4.46,4.46-2,4.46-4.46-2-4.46-4.46-4.46h0Z"/>
  <g>
    <path class="st0" d="M12.72,3.15c-.12,0-.22-.1-.22-.22s.1-.22.22-.22.22.1.22.22-.1.22-.22.22Z"/>
    <path class="st0" d="M12.72,2.07c-.48,0-.87.39-.87.87s.39.87.87.87.87-.39.87-.87-.39-.87-.87-.87h0Z"/>
  </g>
</svg>